<mxfile host="app.diagrams.net" modified="2023-12-20T14:11:39.704Z" agent="Mozilla/5.0 (Windows NT 10.0; Win64; x64) AppleWebKit/537.36 (KHTML, like Gecko) Chrome/109.0.0.0 Safari/537.36" etag="KVFm0o-Xz7ACOLMuIlWH" version="22.1.11" type="google">
  <diagram name="Pagina-1" id="bRXsycq1oti193EfWJI6">
    <mxGraphModel grid="1" page="1" gridSize="10" guides="1" tooltips="1" connect="1" arrows="1" fold="1" pageScale="1" pageWidth="1654" pageHeight="2336" background="none" math="0" shadow="0">
      <root>
        <mxCell id="0" />
        <mxCell id="1" parent="0" />
        <mxCell id="jsnSZlF5PCmOA0v7ZHfj-28" style="edgeStyle=orthogonalEdgeStyle;rounded=0;orthogonalLoop=1;jettySize=auto;html=1;exitX=1;exitY=0;exitDx=0;exitDy=0;entryX=0.5;entryY=1;entryDx=0;entryDy=0;" edge="1" parent="1" source="jsnSZlF5PCmOA0v7ZHfj-1" target="jsnSZlF5PCmOA0v7ZHfj-3">
          <mxGeometry relative="1" as="geometry">
            <Array as="points">
              <mxPoint x="87" y="290" />
              <mxPoint x="150" y="290" />
            </Array>
          </mxGeometry>
        </mxCell>
        <mxCell id="jsnSZlF5PCmOA0v7ZHfj-29" style="edgeStyle=orthogonalEdgeStyle;rounded=0;orthogonalLoop=1;jettySize=auto;html=1;exitX=1;exitY=0.5;exitDx=0;exitDy=0;entryX=0;entryY=0.5;entryDx=0;entryDy=0;" edge="1" parent="1" source="jsnSZlF5PCmOA0v7ZHfj-1" target="jsnSZlF5PCmOA0v7ZHfj-6">
          <mxGeometry relative="1" as="geometry" />
        </mxCell>
        <mxCell id="jsnSZlF5PCmOA0v7ZHfj-30" style="edgeStyle=orthogonalEdgeStyle;rounded=0;orthogonalLoop=1;jettySize=auto;html=1;exitX=0.5;exitY=1;exitDx=0;exitDy=0;entryX=0;entryY=0.5;entryDx=0;entryDy=0;" edge="1" parent="1" source="jsnSZlF5PCmOA0v7ZHfj-1" target="jsnSZlF5PCmOA0v7ZHfj-7">
          <mxGeometry relative="1" as="geometry" />
        </mxCell>
        <mxCell id="jsnSZlF5PCmOA0v7ZHfj-1" value="Inizio" style="ellipse;whiteSpace=wrap;html=1;" vertex="1" parent="1">
          <mxGeometry x="10" y="320" width="90" height="60" as="geometry" />
        </mxCell>
        <mxCell id="jsnSZlF5PCmOA0v7ZHfj-23" style="edgeStyle=orthogonalEdgeStyle;rounded=0;orthogonalLoop=1;jettySize=auto;html=1;exitX=1;exitY=0.5;exitDx=0;exitDy=0;entryX=0;entryY=0.5;entryDx=0;entryDy=0;" edge="1" parent="1" source="jsnSZlF5PCmOA0v7ZHfj-2" target="jsnSZlF5PCmOA0v7ZHfj-4">
          <mxGeometry relative="1" as="geometry" />
        </mxCell>
        <mxCell id="jsnSZlF5PCmOA0v7ZHfj-2" value="2" style="ellipse;whiteSpace=wrap;html=1;aspect=fixed;" vertex="1" parent="1">
          <mxGeometry x="210" y="200" width="60" height="60" as="geometry" />
        </mxCell>
        <mxCell id="jsnSZlF5PCmOA0v7ZHfj-22" style="edgeStyle=orthogonalEdgeStyle;rounded=0;orthogonalLoop=1;jettySize=auto;html=1;exitX=1;exitY=0.5;exitDx=0;exitDy=0;entryX=0;entryY=0.5;entryDx=0;entryDy=0;" edge="1" parent="1" source="jsnSZlF5PCmOA0v7ZHfj-3" target="jsnSZlF5PCmOA0v7ZHfj-2">
          <mxGeometry relative="1" as="geometry" />
        </mxCell>
        <mxCell id="jsnSZlF5PCmOA0v7ZHfj-3" value="1" style="ellipse;whiteSpace=wrap;html=1;aspect=fixed;" vertex="1" parent="1">
          <mxGeometry x="120" y="200" width="60" height="60" as="geometry" />
        </mxCell>
        <mxCell id="jsnSZlF5PCmOA0v7ZHfj-24" style="edgeStyle=orthogonalEdgeStyle;rounded=0;orthogonalLoop=1;jettySize=auto;html=1;exitX=1;exitY=0.5;exitDx=0;exitDy=0;" edge="1" parent="1" source="jsnSZlF5PCmOA0v7ZHfj-4" target="jsnSZlF5PCmOA0v7ZHfj-5">
          <mxGeometry relative="1" as="geometry" />
        </mxCell>
        <mxCell id="jsnSZlF5PCmOA0v7ZHfj-4" value="3" style="ellipse;whiteSpace=wrap;html=1;aspect=fixed;" vertex="1" parent="1">
          <mxGeometry x="300" y="200" width="60" height="60" as="geometry" />
        </mxCell>
        <mxCell id="jsnSZlF5PCmOA0v7ZHfj-25" style="edgeStyle=orthogonalEdgeStyle;rounded=0;orthogonalLoop=1;jettySize=auto;html=1;exitX=1;exitY=0.5;exitDx=0;exitDy=0;entryX=0;entryY=0.5;entryDx=0;entryDy=0;" edge="1" parent="1" source="jsnSZlF5PCmOA0v7ZHfj-5" target="jsnSZlF5PCmOA0v7ZHfj-20">
          <mxGeometry relative="1" as="geometry" />
        </mxCell>
        <mxCell id="QJsvc1VJJBGcyiPQSTe9-25" style="edgeStyle=orthogonalEdgeStyle;rounded=0;orthogonalLoop=1;jettySize=auto;html=1;exitX=0.5;exitY=0;exitDx=0;exitDy=0;entryX=0.5;entryY=0;entryDx=0;entryDy=0;" edge="1" parent="1" source="jsnSZlF5PCmOA0v7ZHfj-5" target="jsnSZlF5PCmOA0v7ZHfj-27">
          <mxGeometry relative="1" as="geometry" />
        </mxCell>
        <mxCell id="FqyXXrVaWZC7_pQp-Kfu-10" style="edgeStyle=orthogonalEdgeStyle;rounded=0;orthogonalLoop=1;jettySize=auto;html=1;exitX=0.5;exitY=1;exitDx=0;exitDy=0;entryX=0;entryY=0.5;entryDx=0;entryDy=0;" edge="1" parent="1" source="jsnSZlF5PCmOA0v7ZHfj-5" target="FqyXXrVaWZC7_pQp-Kfu-9">
          <mxGeometry relative="1" as="geometry" />
        </mxCell>
        <mxCell id="jsnSZlF5PCmOA0v7ZHfj-5" value="8" style="ellipse;whiteSpace=wrap;html=1;aspect=fixed;" vertex="1" parent="1">
          <mxGeometry x="390" y="200" width="60" height="60" as="geometry" />
        </mxCell>
        <mxCell id="jsnSZlF5PCmOA0v7ZHfj-32" style="edgeStyle=orthogonalEdgeStyle;rounded=0;orthogonalLoop=1;jettySize=auto;html=1;exitX=1;exitY=0;exitDx=0;exitDy=0;entryX=0;entryY=0.5;entryDx=0;entryDy=0;" edge="1" parent="1" source="jsnSZlF5PCmOA0v7ZHfj-6" target="jsnSZlF5PCmOA0v7ZHfj-9">
          <mxGeometry relative="1" as="geometry" />
        </mxCell>
        <mxCell id="jsnSZlF5PCmOA0v7ZHfj-33" style="edgeStyle=orthogonalEdgeStyle;rounded=0;orthogonalLoop=1;jettySize=auto;html=1;exitX=1;exitY=0.5;exitDx=0;exitDy=0;entryX=0;entryY=0.5;entryDx=0;entryDy=0;" edge="1" parent="1" source="jsnSZlF5PCmOA0v7ZHfj-6" target="jsnSZlF5PCmOA0v7ZHfj-10">
          <mxGeometry relative="1" as="geometry" />
        </mxCell>
        <mxCell id="jsnSZlF5PCmOA0v7ZHfj-34" style="edgeStyle=orthogonalEdgeStyle;rounded=0;orthogonalLoop=1;jettySize=auto;html=1;exitX=0.5;exitY=1;exitDx=0;exitDy=0;entryX=0;entryY=0.5;entryDx=0;entryDy=0;" edge="1" parent="1" source="jsnSZlF5PCmOA0v7ZHfj-6" target="jsnSZlF5PCmOA0v7ZHfj-11">
          <mxGeometry relative="1" as="geometry" />
        </mxCell>
        <mxCell id="jsnSZlF5PCmOA0v7ZHfj-6" value="4" style="ellipse;whiteSpace=wrap;html=1;aspect=fixed;" vertex="1" parent="1">
          <mxGeometry x="120" y="370" width="60" height="60" as="geometry" />
        </mxCell>
        <mxCell id="jsnSZlF5PCmOA0v7ZHfj-31" style="edgeStyle=orthogonalEdgeStyle;rounded=0;orthogonalLoop=1;jettySize=auto;html=1;exitX=1;exitY=0.5;exitDx=0;exitDy=0;entryX=0;entryY=0.5;entryDx=0;entryDy=0;" edge="1" parent="1" source="jsnSZlF5PCmOA0v7ZHfj-7" target="jsnSZlF5PCmOA0v7ZHfj-8">
          <mxGeometry relative="1" as="geometry" />
        </mxCell>
        <mxCell id="jsnSZlF5PCmOA0v7ZHfj-7" value="5" style="ellipse;whiteSpace=wrap;html=1;aspect=fixed;" vertex="1" parent="1">
          <mxGeometry x="120" y="550" width="60" height="60" as="geometry" />
        </mxCell>
        <mxCell id="jsnSZlF5PCmOA0v7ZHfj-8" value="6" style="ellipse;whiteSpace=wrap;html=1;aspect=fixed;" vertex="1" parent="1">
          <mxGeometry x="210" y="550" width="60" height="60" as="geometry" />
        </mxCell>
        <mxCell id="QJsvc1VJJBGcyiPQSTe9-1" style="edgeStyle=orthogonalEdgeStyle;rounded=0;orthogonalLoop=1;jettySize=auto;html=1;exitX=1;exitY=0.5;exitDx=0;exitDy=0;entryX=0;entryY=0;entryDx=0;entryDy=0;" edge="1" parent="1" source="jsnSZlF5PCmOA0v7ZHfj-9" target="jsnSZlF5PCmOA0v7ZHfj-12">
          <mxGeometry relative="1" as="geometry" />
        </mxCell>
        <mxCell id="jsnSZlF5PCmOA0v7ZHfj-9" value="4.1" style="ellipse;whiteSpace=wrap;html=1;aspect=fixed;" vertex="1" parent="1">
          <mxGeometry x="210" y="320" width="60" height="60" as="geometry" />
        </mxCell>
        <mxCell id="jsnSZlF5PCmOA0v7ZHfj-10" value="4.2" style="ellipse;whiteSpace=wrap;html=1;aspect=fixed;" vertex="1" parent="1">
          <mxGeometry x="210" y="390" width="60" height="60" as="geometry" />
        </mxCell>
        <mxCell id="QJsvc1VJJBGcyiPQSTe9-4" style="edgeStyle=orthogonalEdgeStyle;rounded=0;orthogonalLoop=1;jettySize=auto;html=1;exitX=1;exitY=0.5;exitDx=0;exitDy=0;entryX=0;entryY=1;entryDx=0;entryDy=0;" edge="1" parent="1" source="jsnSZlF5PCmOA0v7ZHfj-11" target="jsnSZlF5PCmOA0v7ZHfj-12">
          <mxGeometry relative="1" as="geometry" />
        </mxCell>
        <mxCell id="jsnSZlF5PCmOA0v7ZHfj-11" value="4.3" style="ellipse;whiteSpace=wrap;html=1;aspect=fixed;" vertex="1" parent="1">
          <mxGeometry x="210" y="460" width="60" height="60" as="geometry" />
        </mxCell>
        <mxCell id="QJsvc1VJJBGcyiPQSTe9-5" style="edgeStyle=orthogonalEdgeStyle;rounded=0;orthogonalLoop=1;jettySize=auto;html=1;exitX=1;exitY=0.5;exitDx=0;exitDy=0;entryX=0;entryY=0.5;entryDx=0;entryDy=0;" edge="1" parent="1" source="jsnSZlF5PCmOA0v7ZHfj-12" target="jsnSZlF5PCmOA0v7ZHfj-14">
          <mxGeometry relative="1" as="geometry" />
        </mxCell>
        <mxCell id="QJsvc1VJJBGcyiPQSTe9-6" style="edgeStyle=orthogonalEdgeStyle;rounded=0;orthogonalLoop=1;jettySize=auto;html=1;exitX=0.5;exitY=0;exitDx=0;exitDy=0;entryX=0;entryY=0.5;entryDx=0;entryDy=0;" edge="1" parent="1" source="jsnSZlF5PCmOA0v7ZHfj-12" target="jsnSZlF5PCmOA0v7ZHfj-13">
          <mxGeometry relative="1" as="geometry" />
        </mxCell>
        <mxCell id="QJsvc1VJJBGcyiPQSTe9-7" style="edgeStyle=orthogonalEdgeStyle;rounded=0;orthogonalLoop=1;jettySize=auto;html=1;exitX=0.5;exitY=1;exitDx=0;exitDy=0;entryX=0;entryY=0.5;entryDx=0;entryDy=0;" edge="1" parent="1" source="jsnSZlF5PCmOA0v7ZHfj-12" target="jsnSZlF5PCmOA0v7ZHfj-15">
          <mxGeometry relative="1" as="geometry" />
        </mxCell>
        <mxCell id="jsnSZlF5PCmOA0v7ZHfj-12" value="7" style="ellipse;whiteSpace=wrap;html=1;aspect=fixed;" vertex="1" parent="1">
          <mxGeometry x="320" y="400" width="60" height="60" as="geometry" />
        </mxCell>
        <mxCell id="QJsvc1VJJBGcyiPQSTe9-14" style="edgeStyle=orthogonalEdgeStyle;rounded=0;orthogonalLoop=1;jettySize=auto;html=1;exitX=1;exitY=0.5;exitDx=0;exitDy=0;entryX=0;entryY=0;entryDx=0;entryDy=0;" edge="1" parent="1" source="jsnSZlF5PCmOA0v7ZHfj-13" target="jsnSZlF5PCmOA0v7ZHfj-16">
          <mxGeometry relative="1" as="geometry" />
        </mxCell>
        <mxCell id="jsnSZlF5PCmOA0v7ZHfj-13" value="7.1" style="ellipse;whiteSpace=wrap;html=1;aspect=fixed;" vertex="1" parent="1">
          <mxGeometry x="400" y="310" width="60" height="60" as="geometry" />
        </mxCell>
        <mxCell id="QJsvc1VJJBGcyiPQSTe9-8" style="edgeStyle=orthogonalEdgeStyle;rounded=0;orthogonalLoop=1;jettySize=auto;html=1;exitX=1;exitY=0.5;exitDx=0;exitDy=0;entryX=0;entryY=0.5;entryDx=0;entryDy=0;" edge="1" parent="1" source="jsnSZlF5PCmOA0v7ZHfj-14" target="jsnSZlF5PCmOA0v7ZHfj-16">
          <mxGeometry relative="1" as="geometry" />
        </mxCell>
        <mxCell id="jsnSZlF5PCmOA0v7ZHfj-14" value="7.2" style="ellipse;whiteSpace=wrap;html=1;aspect=fixed;" vertex="1" parent="1">
          <mxGeometry x="400" y="400" width="60" height="60" as="geometry" />
        </mxCell>
        <mxCell id="QJsvc1VJJBGcyiPQSTe9-13" style="edgeStyle=orthogonalEdgeStyle;rounded=0;orthogonalLoop=1;jettySize=auto;html=1;exitX=1;exitY=0.5;exitDx=0;exitDy=0;entryX=0;entryY=1;entryDx=0;entryDy=0;" edge="1" parent="1" source="jsnSZlF5PCmOA0v7ZHfj-15" target="jsnSZlF5PCmOA0v7ZHfj-16">
          <mxGeometry relative="1" as="geometry" />
        </mxCell>
        <mxCell id="jsnSZlF5PCmOA0v7ZHfj-15" value="7.3" style="ellipse;whiteSpace=wrap;html=1;aspect=fixed;" vertex="1" parent="1">
          <mxGeometry x="400" y="490" width="60" height="60" as="geometry" />
        </mxCell>
        <mxCell id="QJsvc1VJJBGcyiPQSTe9-9" style="edgeStyle=orthogonalEdgeStyle;rounded=0;orthogonalLoop=1;jettySize=auto;html=1;exitX=0.5;exitY=0;exitDx=0;exitDy=0;entryX=0;entryY=0.5;entryDx=0;entryDy=0;" edge="1" parent="1" source="jsnSZlF5PCmOA0v7ZHfj-16" target="jsnSZlF5PCmOA0v7ZHfj-17">
          <mxGeometry relative="1" as="geometry" />
        </mxCell>
        <mxCell id="QJsvc1VJJBGcyiPQSTe9-10" style="edgeStyle=orthogonalEdgeStyle;rounded=0;orthogonalLoop=1;jettySize=auto;html=1;exitX=1;exitY=0.5;exitDx=0;exitDy=0;entryX=0;entryY=0.5;entryDx=0;entryDy=0;" edge="1" parent="1" source="jsnSZlF5PCmOA0v7ZHfj-16" target="jsnSZlF5PCmOA0v7ZHfj-18">
          <mxGeometry relative="1" as="geometry" />
        </mxCell>
        <mxCell id="QJsvc1VJJBGcyiPQSTe9-11" style="edgeStyle=orthogonalEdgeStyle;rounded=0;orthogonalLoop=1;jettySize=auto;html=1;exitX=0.5;exitY=1;exitDx=0;exitDy=0;entryX=0;entryY=0.5;entryDx=0;entryDy=0;" edge="1" parent="1" source="jsnSZlF5PCmOA0v7ZHfj-16" target="jsnSZlF5PCmOA0v7ZHfj-19">
          <mxGeometry relative="1" as="geometry" />
        </mxCell>
        <mxCell id="QJsvc1VJJBGcyiPQSTe9-16" style="edgeStyle=orthogonalEdgeStyle;rounded=0;orthogonalLoop=1;jettySize=auto;html=1;exitX=0.5;exitY=1;exitDx=0;exitDy=0;entryX=0;entryY=0.5;entryDx=0;entryDy=0;" edge="1" parent="1" source="jsnSZlF5PCmOA0v7ZHfj-16" target="QJsvc1VJJBGcyiPQSTe9-15">
          <mxGeometry relative="1" as="geometry" />
        </mxCell>
        <mxCell id="FqyXXrVaWZC7_pQp-Kfu-12" style="edgeStyle=orthogonalEdgeStyle;rounded=0;orthogonalLoop=1;jettySize=auto;html=1;exitX=0.5;exitY=1;exitDx=0;exitDy=0;" edge="1" parent="1" source="jsnSZlF5PCmOA0v7ZHfj-16">
          <mxGeometry relative="1" as="geometry">
            <mxPoint x="530" y="460" as="targetPoint" />
          </mxGeometry>
        </mxCell>
        <mxCell id="FqyXXrVaWZC7_pQp-Kfu-13" style="edgeStyle=orthogonalEdgeStyle;rounded=0;orthogonalLoop=1;jettySize=auto;html=1;exitX=0.5;exitY=1;exitDx=0;exitDy=0;entryX=0.5;entryY=1;entryDx=0;entryDy=0;" edge="1" parent="1" source="jsnSZlF5PCmOA0v7ZHfj-16" target="FqyXXrVaWZC7_pQp-Kfu-11">
          <mxGeometry relative="1" as="geometry" />
        </mxCell>
        <mxCell id="jsnSZlF5PCmOA0v7ZHfj-16" value="9" style="ellipse;whiteSpace=wrap;html=1;aspect=fixed;" vertex="1" parent="1">
          <mxGeometry x="500" y="400" width="60" height="60" as="geometry" />
        </mxCell>
        <mxCell id="QJsvc1VJJBGcyiPQSTe9-21" style="edgeStyle=orthogonalEdgeStyle;rounded=0;orthogonalLoop=1;jettySize=auto;html=1;exitX=1;exitY=0.5;exitDx=0;exitDy=0;entryX=0;entryY=0.5;entryDx=0;entryDy=0;" edge="1" parent="1" source="jsnSZlF5PCmOA0v7ZHfj-17" target="QJsvc1VJJBGcyiPQSTe9-17">
          <mxGeometry relative="1" as="geometry" />
        </mxCell>
        <mxCell id="jsnSZlF5PCmOA0v7ZHfj-17" value="9.1" style="ellipse;whiteSpace=wrap;html=1;aspect=fixed;" vertex="1" parent="1">
          <mxGeometry x="580" y="310" width="60" height="60" as="geometry" />
        </mxCell>
        <mxCell id="QJsvc1VJJBGcyiPQSTe9-22" style="edgeStyle=orthogonalEdgeStyle;rounded=0;orthogonalLoop=1;jettySize=auto;html=1;exitX=1;exitY=0.5;exitDx=0;exitDy=0;entryX=0;entryY=0.5;entryDx=0;entryDy=0;" edge="1" parent="1" source="jsnSZlF5PCmOA0v7ZHfj-18" target="QJsvc1VJJBGcyiPQSTe9-18">
          <mxGeometry relative="1" as="geometry" />
        </mxCell>
        <mxCell id="jsnSZlF5PCmOA0v7ZHfj-18" value="9.2" style="ellipse;whiteSpace=wrap;html=1;aspect=fixed;" vertex="1" parent="1">
          <mxGeometry x="580" y="400" width="60" height="60" as="geometry" />
        </mxCell>
        <mxCell id="QJsvc1VJJBGcyiPQSTe9-23" style="edgeStyle=orthogonalEdgeStyle;rounded=0;orthogonalLoop=1;jettySize=auto;html=1;exitX=1;exitY=0.5;exitDx=0;exitDy=0;entryX=0;entryY=0.5;entryDx=0;entryDy=0;" edge="1" parent="1" source="jsnSZlF5PCmOA0v7ZHfj-19" target="QJsvc1VJJBGcyiPQSTe9-19">
          <mxGeometry relative="1" as="geometry" />
        </mxCell>
        <mxCell id="jsnSZlF5PCmOA0v7ZHfj-19" value="9.3" style="ellipse;whiteSpace=wrap;html=1;aspect=fixed;" vertex="1" parent="1">
          <mxGeometry x="580" y="490" width="60" height="60" as="geometry" />
        </mxCell>
        <mxCell id="jsnSZlF5PCmOA0v7ZHfj-26" style="edgeStyle=orthogonalEdgeStyle;rounded=0;orthogonalLoop=1;jettySize=auto;html=1;exitX=1;exitY=0.5;exitDx=0;exitDy=0;entryX=0;entryY=0.5;entryDx=0;entryDy=0;" edge="1" parent="1" source="jsnSZlF5PCmOA0v7ZHfj-20" target="jsnSZlF5PCmOA0v7ZHfj-21">
          <mxGeometry relative="1" as="geometry" />
        </mxCell>
        <mxCell id="jsnSZlF5PCmOA0v7ZHfj-20" value="10" style="ellipse;whiteSpace=wrap;html=1;aspect=fixed;" vertex="1" parent="1">
          <mxGeometry x="480" y="200" width="60" height="60" as="geometry" />
        </mxCell>
        <mxCell id="jsnSZlF5PCmOA0v7ZHfj-21" value="11" style="ellipse;whiteSpace=wrap;html=1;aspect=fixed;" vertex="1" parent="1">
          <mxGeometry x="570" y="200" width="60" height="60" as="geometry" />
        </mxCell>
        <mxCell id="QJsvc1VJJBGcyiPQSTe9-32" style="edgeStyle=orthogonalEdgeStyle;rounded=0;orthogonalLoop=1;jettySize=auto;html=1;exitX=1;exitY=0.5;exitDx=0;exitDy=0;entryX=1;entryY=0.5;entryDx=0;entryDy=0;" edge="1" parent="1" source="jsnSZlF5PCmOA0v7ZHfj-27" target="QJsvc1VJJBGcyiPQSTe9-26">
          <mxGeometry relative="1" as="geometry" />
        </mxCell>
        <mxCell id="QJsvc1VJJBGcyiPQSTe9-33" style="edgeStyle=orthogonalEdgeStyle;rounded=0;orthogonalLoop=1;jettySize=auto;html=1;exitX=1;exitY=0.5;exitDx=0;exitDy=0;entryX=1;entryY=0.5;entryDx=0;entryDy=0;" edge="1" parent="1" source="jsnSZlF5PCmOA0v7ZHfj-27" target="QJsvc1VJJBGcyiPQSTe9-27">
          <mxGeometry relative="1" as="geometry" />
        </mxCell>
        <mxCell id="QJsvc1VJJBGcyiPQSTe9-34" style="edgeStyle=orthogonalEdgeStyle;rounded=0;orthogonalLoop=1;jettySize=auto;html=1;exitX=1;exitY=0.5;exitDx=0;exitDy=0;entryX=1;entryY=0.5;entryDx=0;entryDy=0;" edge="1" parent="1" source="jsnSZlF5PCmOA0v7ZHfj-27" target="QJsvc1VJJBGcyiPQSTe9-28">
          <mxGeometry relative="1" as="geometry" />
        </mxCell>
        <mxCell id="QJsvc1VJJBGcyiPQSTe9-36" style="edgeStyle=orthogonalEdgeStyle;rounded=0;orthogonalLoop=1;jettySize=auto;html=1;exitX=1;exitY=0.5;exitDx=0;exitDy=0;entryX=1;entryY=0.5;entryDx=0;entryDy=0;" edge="1" parent="1" source="jsnSZlF5PCmOA0v7ZHfj-27" target="QJsvc1VJJBGcyiPQSTe9-30">
          <mxGeometry relative="1" as="geometry" />
        </mxCell>
        <mxCell id="FqyXXrVaWZC7_pQp-Kfu-5" style="edgeStyle=orthogonalEdgeStyle;rounded=0;orthogonalLoop=1;jettySize=auto;html=1;exitX=1;exitY=0.5;exitDx=0;exitDy=0;entryX=1;entryY=0.5;entryDx=0;entryDy=0;" edge="1" parent="1" source="jsnSZlF5PCmOA0v7ZHfj-27" target="FqyXXrVaWZC7_pQp-Kfu-1">
          <mxGeometry relative="1" as="geometry" />
        </mxCell>
        <mxCell id="FqyXXrVaWZC7_pQp-Kfu-6" style="edgeStyle=orthogonalEdgeStyle;rounded=0;orthogonalLoop=1;jettySize=auto;html=1;exitX=1;exitY=0.5;exitDx=0;exitDy=0;entryX=1;entryY=0.5;entryDx=0;entryDy=0;" edge="1" parent="1" source="jsnSZlF5PCmOA0v7ZHfj-27" target="FqyXXrVaWZC7_pQp-Kfu-2">
          <mxGeometry relative="1" as="geometry" />
        </mxCell>
        <mxCell id="FqyXXrVaWZC7_pQp-Kfu-7" style="edgeStyle=orthogonalEdgeStyle;rounded=0;orthogonalLoop=1;jettySize=auto;html=1;exitX=1;exitY=0.5;exitDx=0;exitDy=0;entryX=1;entryY=0.5;entryDx=0;entryDy=0;" edge="1" parent="1" source="jsnSZlF5PCmOA0v7ZHfj-27" target="FqyXXrVaWZC7_pQp-Kfu-3">
          <mxGeometry relative="1" as="geometry" />
        </mxCell>
        <mxCell id="FqyXXrVaWZC7_pQp-Kfu-8" style="edgeStyle=orthogonalEdgeStyle;rounded=0;orthogonalLoop=1;jettySize=auto;html=1;exitX=1;exitY=0.5;exitDx=0;exitDy=0;entryX=1;entryY=0.5;entryDx=0;entryDy=0;" edge="1" parent="1" source="jsnSZlF5PCmOA0v7ZHfj-27" target="FqyXXrVaWZC7_pQp-Kfu-4">
          <mxGeometry relative="1" as="geometry" />
        </mxCell>
        <mxCell id="FqyXXrVaWZC7_pQp-Kfu-18" style="edgeStyle=orthogonalEdgeStyle;rounded=0;orthogonalLoop=1;jettySize=auto;html=1;exitX=1;exitY=0.5;exitDx=0;exitDy=0;entryX=1;entryY=0.5;entryDx=0;entryDy=0;" edge="1" parent="1" source="jsnSZlF5PCmOA0v7ZHfj-27" target="FqyXXrVaWZC7_pQp-Kfu-11">
          <mxGeometry relative="1" as="geometry" />
        </mxCell>
        <mxCell id="jsnSZlF5PCmOA0v7ZHfj-27" value="14" style="ellipse;whiteSpace=wrap;html=1;aspect=fixed;" vertex="1" parent="1">
          <mxGeometry x="660" y="200" width="60" height="60" as="geometry" />
        </mxCell>
        <mxCell id="QJsvc1VJJBGcyiPQSTe9-2" style="edgeStyle=orthogonalEdgeStyle;rounded=0;orthogonalLoop=1;jettySize=auto;html=1;exitX=1;exitY=0.5;exitDx=0;exitDy=0;entryX=0.033;entryY=0.333;entryDx=0;entryDy=0;entryPerimeter=0;" edge="1" parent="1" source="jsnSZlF5PCmOA0v7ZHfj-10" target="jsnSZlF5PCmOA0v7ZHfj-12">
          <mxGeometry relative="1" as="geometry" />
        </mxCell>
        <mxCell id="QJsvc1VJJBGcyiPQSTe9-12" style="edgeStyle=orthogonalEdgeStyle;rounded=0;orthogonalLoop=1;jettySize=auto;html=1;exitX=1;exitY=0.5;exitDx=0;exitDy=0;entryX=0.25;entryY=1.017;entryDx=0;entryDy=0;entryPerimeter=0;" edge="1" parent="1" source="jsnSZlF5PCmOA0v7ZHfj-8" target="jsnSZlF5PCmOA0v7ZHfj-12">
          <mxGeometry relative="1" as="geometry" />
        </mxCell>
        <mxCell id="QJsvc1VJJBGcyiPQSTe9-24" style="edgeStyle=orthogonalEdgeStyle;rounded=0;orthogonalLoop=1;jettySize=auto;html=1;exitX=1;exitY=0.5;exitDx=0;exitDy=0;entryX=0;entryY=0.5;entryDx=0;entryDy=0;" edge="1" parent="1" source="QJsvc1VJJBGcyiPQSTe9-15" target="QJsvc1VJJBGcyiPQSTe9-20">
          <mxGeometry relative="1" as="geometry" />
        </mxCell>
        <mxCell id="QJsvc1VJJBGcyiPQSTe9-15" value="9.4" style="ellipse;whiteSpace=wrap;html=1;aspect=fixed;" vertex="1" parent="1">
          <mxGeometry x="580" y="570" width="60" height="60" as="geometry" />
        </mxCell>
        <mxCell id="FqyXXrVaWZC7_pQp-Kfu-14" style="edgeStyle=orthogonalEdgeStyle;rounded=0;orthogonalLoop=1;jettySize=auto;html=1;exitX=1;exitY=0.5;exitDx=0;exitDy=0;entryX=0.5;entryY=0;entryDx=0;entryDy=0;" edge="1" parent="1" source="QJsvc1VJJBGcyiPQSTe9-17" target="FqyXXrVaWZC7_pQp-Kfu-11">
          <mxGeometry relative="1" as="geometry" />
        </mxCell>
        <mxCell id="QJsvc1VJJBGcyiPQSTe9-17" value="12" style="ellipse;whiteSpace=wrap;html=1;aspect=fixed;" vertex="1" parent="1">
          <mxGeometry x="670" y="310" width="60" height="60" as="geometry" />
        </mxCell>
        <mxCell id="FqyXXrVaWZC7_pQp-Kfu-15" style="edgeStyle=orthogonalEdgeStyle;rounded=0;orthogonalLoop=1;jettySize=auto;html=1;exitX=1;exitY=0.5;exitDx=0;exitDy=0;entryX=0;entryY=0.5;entryDx=0;entryDy=0;" edge="1" parent="1" source="QJsvc1VJJBGcyiPQSTe9-18" target="FqyXXrVaWZC7_pQp-Kfu-11">
          <mxGeometry relative="1" as="geometry" />
        </mxCell>
        <mxCell id="QJsvc1VJJBGcyiPQSTe9-18" value="12.1" style="ellipse;whiteSpace=wrap;html=1;aspect=fixed;" vertex="1" parent="1">
          <mxGeometry x="670" y="400" width="60" height="60" as="geometry" />
        </mxCell>
        <mxCell id="FqyXXrVaWZC7_pQp-Kfu-16" style="edgeStyle=orthogonalEdgeStyle;rounded=0;orthogonalLoop=1;jettySize=auto;html=1;exitX=1;exitY=0.5;exitDx=0;exitDy=0;entryX=0.5;entryY=1;entryDx=0;entryDy=0;" edge="1" parent="1" source="QJsvc1VJJBGcyiPQSTe9-19" target="FqyXXrVaWZC7_pQp-Kfu-11">
          <mxGeometry relative="1" as="geometry" />
        </mxCell>
        <mxCell id="QJsvc1VJJBGcyiPQSTe9-19" value="12.2" style="ellipse;whiteSpace=wrap;html=1;aspect=fixed;" vertex="1" parent="1">
          <mxGeometry x="670" y="490" width="60" height="60" as="geometry" />
        </mxCell>
        <mxCell id="FqyXXrVaWZC7_pQp-Kfu-17" style="edgeStyle=orthogonalEdgeStyle;rounded=0;orthogonalLoop=1;jettySize=auto;html=1;exitX=1;exitY=0.5;exitDx=0;exitDy=0;entryX=0.5;entryY=1;entryDx=0;entryDy=0;" edge="1" parent="1" source="QJsvc1VJJBGcyiPQSTe9-20" target="FqyXXrVaWZC7_pQp-Kfu-11">
          <mxGeometry relative="1" as="geometry" />
        </mxCell>
        <mxCell id="QJsvc1VJJBGcyiPQSTe9-20" value="12.3" style="ellipse;whiteSpace=wrap;html=1;aspect=fixed;" vertex="1" parent="1">
          <mxGeometry x="670" y="570" width="60" height="60" as="geometry" />
        </mxCell>
        <mxCell id="QJsvc1VJJBGcyiPQSTe9-26" value="14.1" style="ellipse;whiteSpace=wrap;html=1;aspect=fixed;" vertex="1" parent="1">
          <mxGeometry x="70" y="660" width="60" height="60" as="geometry" />
        </mxCell>
        <mxCell id="QJsvc1VJJBGcyiPQSTe9-27" value="14.2" style="ellipse;whiteSpace=wrap;html=1;aspect=fixed;" vertex="1" parent="1">
          <mxGeometry x="70" y="750" width="60" height="60" as="geometry" />
        </mxCell>
        <mxCell id="QJsvc1VJJBGcyiPQSTe9-28" value="14.3" style="ellipse;whiteSpace=wrap;html=1;aspect=fixed;" vertex="1" parent="1">
          <mxGeometry x="70" y="840" width="60" height="60" as="geometry" />
        </mxCell>
        <mxCell id="QJsvc1VJJBGcyiPQSTe9-29" value="14.4" style="ellipse;whiteSpace=wrap;html=1;aspect=fixed;" vertex="1" parent="1">
          <mxGeometry x="70" y="930" width="60" height="60" as="geometry" />
        </mxCell>
        <mxCell id="QJsvc1VJJBGcyiPQSTe9-30" value="14.5" style="ellipse;whiteSpace=wrap;html=1;aspect=fixed;" vertex="1" parent="1">
          <mxGeometry x="70" y="1020" width="60" height="60" as="geometry" />
        </mxCell>
        <mxCell id="QJsvc1VJJBGcyiPQSTe9-35" style="edgeStyle=orthogonalEdgeStyle;rounded=0;orthogonalLoop=1;jettySize=auto;html=1;exitX=1;exitY=0.5;exitDx=0;exitDy=0;entryX=1;entryY=0.5;entryDx=0;entryDy=0;" edge="1" parent="1" source="jsnSZlF5PCmOA0v7ZHfj-27" target="QJsvc1VJJBGcyiPQSTe9-29">
          <mxGeometry relative="1" as="geometry" />
        </mxCell>
        <mxCell id="QJsvc1VJJBGcyiPQSTe9-49" value="Fine" style="ellipse;whiteSpace=wrap;html=1;" vertex="1" parent="1">
          <mxGeometry x="790" y="770" width="90" height="50" as="geometry" />
        </mxCell>
        <mxCell id="FqyXXrVaWZC7_pQp-Kfu-1" value="14.6" style="ellipse;whiteSpace=wrap;html=1;aspect=fixed;" vertex="1" parent="1">
          <mxGeometry x="70" y="1100" width="60" height="60" as="geometry" />
        </mxCell>
        <mxCell id="FqyXXrVaWZC7_pQp-Kfu-2" value="14.7" style="ellipse;whiteSpace=wrap;html=1;aspect=fixed;" vertex="1" parent="1">
          <mxGeometry x="70" y="1180" width="60" height="60" as="geometry" />
        </mxCell>
        <mxCell id="FqyXXrVaWZC7_pQp-Kfu-3" value="14.8" style="ellipse;whiteSpace=wrap;html=1;aspect=fixed;" vertex="1" parent="1">
          <mxGeometry x="70" y="1260" width="60" height="60" as="geometry" />
        </mxCell>
        <mxCell id="FqyXXrVaWZC7_pQp-Kfu-4" value="14.9" style="ellipse;whiteSpace=wrap;html=1;aspect=fixed;" vertex="1" parent="1">
          <mxGeometry x="70" y="1340" width="60" height="60" as="geometry" />
        </mxCell>
        <mxCell id="FqyXXrVaWZC7_pQp-Kfu-20" style="edgeStyle=orthogonalEdgeStyle;rounded=0;orthogonalLoop=1;jettySize=auto;html=1;exitX=1;exitY=0.5;exitDx=0;exitDy=0;" edge="1" parent="1" source="FqyXXrVaWZC7_pQp-Kfu-9" target="FqyXXrVaWZC7_pQp-Kfu-11">
          <mxGeometry relative="1" as="geometry" />
        </mxCell>
        <mxCell id="FqyXXrVaWZC7_pQp-Kfu-9" value="13" style="ellipse;whiteSpace=wrap;html=1;aspect=fixed;" vertex="1" parent="1">
          <mxGeometry x="480" y="270" width="60" height="60" as="geometry" />
        </mxCell>
        <mxCell id="FqyXXrVaWZC7_pQp-Kfu-21" style="edgeStyle=orthogonalEdgeStyle;rounded=0;orthogonalLoop=1;jettySize=auto;html=1;exitX=1;exitY=1;exitDx=0;exitDy=0;entryX=0.5;entryY=0;entryDx=0;entryDy=0;" edge="1" parent="1" source="FqyXXrVaWZC7_pQp-Kfu-11" target="QJsvc1VJJBGcyiPQSTe9-49">
          <mxGeometry relative="1" as="geometry" />
        </mxCell>
        <mxCell id="FqyXXrVaWZC7_pQp-Kfu-11" value="15" style="ellipse;whiteSpace=wrap;html=1;aspect=fixed;" vertex="1" parent="1">
          <mxGeometry x="797" y="400" width="60" height="60" as="geometry" />
        </mxCell>
      </root>
    </mxGraphModel>
  </diagram>
</mxfile>
